<?xml version="1.0" encoding="UTF-8"?>
<svg version="1.1" xmlns="http://www.w3.org/2000/svg" width="329" height="126">
<path d="M0 0 C1.12347839 0.00607269 1.12347839 0.00607269 2.26965332 0.01226807 C3.03894165 0.01035461 3.80822998 0.00844116 4.60083008 0.00646973 C6.22823412 0.00510799 7.85564902 0.00880368 9.48303223 0.01715088 C11.97855963 0.02785086 14.47336714 0.01725555 16.96887207 0.00445557 C18.54830075 0.00577716 20.12772898 0.00833956 21.70715332 0.01226807 C22.45613892 0.0082196 23.20512451 0.00417114 23.97680664 0 C29.25848089 0.04797064 29.25848089 0.04797064 31.48840332 2.27789307 C32.36049818 5.0135561 33.14194895 7.72278605 33.87121582 10.49664307 C34.19991165 11.7171637 34.19991165 11.7171637 34.5352478 12.96234131 C34.99726894 14.68304573 35.45601681 16.40463188 35.91174316 18.12701416 C36.6110845 20.76913255 37.32032597 23.40843455 38.03137207 26.04742432 C38.47856923 27.71784138 38.92520297 29.3884094 39.37121582 31.05914307 C39.5836795 31.85187622 39.79614319 32.64460938 40.01504517 33.46136475 C41.48840332 39.04418139 41.48840332 39.04418139 41.48840332 41.27789307 C42.14840332 41.27789307 42.80840332 41.27789307 43.48840332 41.27789307 C43.64695801 40.47609619 43.8055127 39.67429932 43.96887207 38.84820557 C45.87388392 29.56521966 48.29437931 20.49965127 50.9107666 11.39605713 C51.50715147 9.20914457 52.01172974 7.01113924 52.51574707 4.80133057 C52.83672363 3.63859619 53.1577002 2.47586182 53.48840332 1.27789307 C56.55434926 -0.2550799 59.75952185 0.15657852 63.12121582 0.18023682 C64.24896927 0.18235924 64.24896927 0.18235924 65.39950562 0.18452454 C67.80417842 0.19012841 70.20875859 0.2026815 72.61340332 0.21539307 C74.24230823 0.22040757 75.87121459 0.22497056 77.50012207 0.22906494 C81.49625159 0.2400991 85.49231174 0.25736628 89.48840332 0.27789307 C90.9584972 3.21808083 90.61574855 5.82853639 90.61779785 9.11090088 C90.62042633 10.1648983 90.62042633 10.1648983 90.62310791 11.2401886 C90.62752007 13.57048999 90.62458941 15.90071585 90.62121582 18.23101807 C90.62188935 19.85046402 90.62285978 21.46990987 90.62411499 23.08935547 C90.62559135 26.4889624 90.62344051 29.88854309 90.61877441 33.28814697 C90.61309532 37.63701102 90.61634493 41.9858131 90.62234688 46.33467484 C90.62596969 49.68219464 90.62480569 53.0296999 90.62221909 56.37722015 C90.62155363 57.97992714 90.62236488 59.58263546 90.62469864 61.18534088 C90.62725136 63.43269821 90.62334698 65.67995708 90.61779785 67.92730713 C90.61700226 69.20478821 90.61620667 70.48226929 90.61538696 71.79846191 C90.4967075 75.05035327 90.10622054 78.08704476 89.48840332 81.27789307 C86.34990402 82.3240595 84.43802029 82.31958673 81.16418457 82.15679932 C80.23775146 82.11369629 79.31131836 82.07059326 78.35681152 82.02618408 C77.18336182 81.96487305 76.00991211 81.90356201 74.80090332 81.84039307 C69.20121582 81.56195557 69.20121582 81.56195557 63.48840332 81.27789307 C62.82840332 69.72789307 62.16840332 58.17789307 61.48840332 46.27789307 C58.56921592 57.04752957 58.56921592 57.04752957 55.65466309 67.81842041 C55.28821344 69.16693618 54.92160639 70.51540919 54.55480957 71.86383057 C54.27099426 72.91727661 54.27099426 72.91727661 53.98144531 73.99200439 C52.60247512 79.04974947 52.60247512 79.04974947 51.48840332 81.27789307 C44.55840332 81.27789307 37.62840332 81.27789307 30.48840332 81.27789307 C28.73524203 76.6027963 27.0822805 72.17396841 25.69934082 67.42242432 C25.3977002 66.38795166 25.09605957 65.353479 24.78527832 64.28765869 C24.48105957 63.23256104 24.17684082 62.17746338 23.86340332 61.09039307 C23.5514502 60.02369385 23.23949707 58.95699463 22.91809082 57.85797119 C21.60395675 53.32930659 20.41459562 48.90885454 19.48840332 44.27789307 C19.15840332 56.48789307 18.82840332 68.69789307 18.48840332 81.27789307 C15.02571108 82.14356613 12.96508887 82.34673557 9.50402832 82.15679932 C8.56945801 82.10845947 7.6348877 82.06011963 6.67199707 82.01031494 C5.70391113 81.95424072 4.7358252 81.8981665 3.73840332 81.84039307 C2.75484863 81.78818604 1.77129395 81.735979 0.75793457 81.68218994 C-1.66558517 81.55277869 -4.08866532 81.41782402 -6.51159668 81.27789307 C-6.68839999 71.01228383 -6.85436651 60.74656272 -7.00637245 50.48055458 C-7.0772928 45.71400127 -7.15199173 40.94756877 -7.23522949 36.18121338 C-7.31537154 31.58425538 -7.38571427 26.98724367 -7.44916916 22.39002609 C-7.47515868 20.63323791 -7.50472166 18.87649895 -7.53786087 17.11983109 C-7.58355901 14.66555265 -7.61672256 12.21140885 -7.64685059 9.75689697 C-7.66339188 9.02537918 -7.67993317 8.29386139 -7.69697571 7.54017639 C-7.71187148 5.78505708 -7.62111791 4.02965526 -7.51159668 2.27789307 C-4.99454863 -0.23915498 -3.43486769 0.03119707 0 0 Z M62.48840332 41.27789307 C63.48840332 43.27789307 63.48840332 43.27789307 63.48840332 43.27789307 Z " fill="#71775C" transform="translate(9.5115966796875,10.72210693359375)"/>
<path d="M0 0 C1.02996094 -0.00128906 2.05992187 -0.00257813 3.12109375 -0.00390625 C4.74724609 0.00189453 4.74724609 0.00189453 6.40625 0.0078125 C7.49035156 0.00394531 8.57445312 0.00007812 9.69140625 -0.00390625 C10.72136719 -0.00261719 11.75132812 -0.00132812 12.8125 0 C14.24045898 0.00169189 14.24045898 0.00169189 15.69726562 0.00341797 C17.90625 0.1328125 17.90625 0.1328125 18.90625 1.1328125 C19.06431531 3.05760063 19.157385 4.9878046 19.22265625 6.91796875 C19.26455078 8.08779297 19.30644531 9.25761719 19.34960938 10.46289062 C19.38892578 11.69458984 19.42824219 12.92628906 19.46875 14.1953125 C19.51193359 15.43087891 19.55511719 16.66644531 19.59960938 17.93945312 C19.70609198 21.00378585 19.80810424 24.06820323 19.90625 27.1328125 C20.70289063 26.71708984 20.70289063 26.71708984 21.515625 26.29296875 C22.22203125 25.93074219 22.9284375 25.56851563 23.65625 25.1953125 C24.35234375 24.83566406 25.0484375 24.47601562 25.765625 24.10546875 C31.86744135 21.33292811 39.00936336 21.08526233 45.44921875 22.81640625 C50.71500569 24.94212593 53.82174936 27.36585696 56.90625 32.1328125 C59.10368234 38.09047722 59.16866433 43.57300365 59.1015625 49.87890625 C59.0987326 50.89001968 59.09590271 51.90113312 59.09298706 52.94288635 C59.08184889 56.15215202 59.05675597 59.36113208 59.03125 62.5703125 C59.02121198 64.75455324 59.01208757 66.93879839 59.00390625 69.12304688 C58.98193043 74.45973182 58.94851656 79.79625174 58.90625 85.1328125 C53.52227983 85.83907941 48.40180829 86.26866776 42.96875 86.2578125 C41.66035156 86.26039062 40.35195313 86.26296875 39.00390625 86.265625 C35.90625 86.1328125 35.90625 86.1328125 34.90625 85.1328125 C34.7706476 82.29698671 34.69561349 79.4821193 34.66015625 76.64453125 C34.62721059 74.88866703 34.59399906 73.13280777 34.56054688 71.37695312 C34.51315905 68.59874997 34.46875359 65.82056595 34.42944336 63.04223633 C34.38969664 60.36778165 34.33814858 57.69375167 34.28515625 55.01953125 C34.2767421 54.19023605 34.26832794 53.36094086 34.25965881 52.5065155 C34.23632098 47.00138592 34.23632098 47.00138592 31.90625 42.1328125 C28.9129873 41.00022661 27.30478116 41.0215945 24.21875 41.8828125 C21.6206372 43.05402513 21.6206372 43.05402513 19.90625 46.1328125 C19.66480837 49.10165715 19.53317903 51.9846805 19.4921875 54.95703125 C19.47282135 55.81843216 19.4534552 56.67983307 19.4335022 57.56733704 C19.3737297 60.31822818 19.32733052 63.06916123 19.28125 65.8203125 C19.24306806 67.68556511 19.2040162 69.55080013 19.1640625 71.41601562 C19.0680301 75.98813836 18.9839905 80.56034364 18.90625 85.1328125 C15.43703101 85.76022445 12.12828697 86.2575974 8.6015625 86.23046875 C7.48007813 86.22563477 7.48007813 86.22563477 6.3359375 86.22070312 C5.57539063 86.21232422 4.81484375 86.20394531 4.03125 86.1953125 C3.2475 86.19080078 2.46375 86.18628906 1.65625 86.18164062 C-0.26045014 86.16995343 -2.17711048 86.15202158 -4.09375 86.1328125 C-5.94449784 81.4248915 -6.37593907 77.21595296 -6.33666992 72.21557617 C-6.33856827 71.44577423 -6.34046661 70.67597229 -6.34242249 69.88284302 C-6.34610749 67.35538332 -6.33546261 64.8282151 -6.32421875 62.30078125 C-6.32302604 60.54055312 -6.32257398 58.78032434 -6.3228302 57.02009583 C-6.32126952 53.34091173 -6.3130084 49.66182551 -6.29956055 45.98266602 C-6.28250874 41.25676202 -6.2787482 36.53096484 -6.27950573 31.80503368 C-6.27923454 28.17549106 -6.27376261 24.54597197 -6.26650429 20.91643715 C-6.26331424 19.17283621 -6.26134943 17.42923259 -6.26061058 15.68562889 C-6.2584541 13.25806447 -6.24972685 10.8306159 -6.23901367 8.40307617 C-6.23946686 7.67738937 -6.23992004 6.95170258 -6.24038696 6.20402527 C-6.20189152 0.27018265 -5.83892561 0.00691816 0 0 Z " fill="#71775C" transform="translate(226.09375,6.8671875)"/>
<path d="M0 0 C4.8018488 4.08157148 7.41393996 7.89347437 8.5 14.125 C8.70992274 18.19180216 8.64356027 22.24229191 8.5625 26.3125 C8.52801649 28.45175461 8.49788796 30.59108501 8.47265625 32.73046875 C8.45468994 33.67043701 8.43672363 34.61040527 8.41821289 35.57885742 C8.49377399 37.93117581 8.82699675 39.8791278 9.5 42.125 C11.48 42.455 13.46 42.785 15.5 43.125 C15.69601608 44.87406659 15.88147403 46.62431846 16.0625 48.375 C16.21912109 49.83679688 16.21912109 49.83679688 16.37890625 51.328125 C16.49108334 53.91905386 16.44010832 55.72007174 15.5 58.125 C9.61573984 61.30568117 1.40353851 61.07633407 -4.984375 59.51953125 C-7.99434078 58.43748151 -10.22470673 57.40029327 -12.5 55.125 C-16.53784226 55.33206883 -19.8174567 56.66350196 -23.5 58.1875 C-31.29703811 61.10208178 -40.08223239 61.55743691 -48.0625 58.9375 C-53.54433785 56.04707641 -56.55626064 52.99046901 -58.5 47.125 C-59.19069755 40.96254268 -59.22874673 35.29713256 -55.5 30.125 C-50.68593185 24.69580092 -45.47368532 22.68342807 -38.5 21.125 C-37.74589844 20.94710937 -36.99179688 20.76921875 -36.21484375 20.5859375 C-32.5491809 19.96356597 -28.89693281 19.76471216 -25.1875 19.5625 C-24.44693359 19.51931641 -23.70636719 19.47613281 -22.94335938 19.43164062 C-21.12908536 19.32629568 -19.3145645 19.22521684 -17.5 19.125 C-17.77034634 16.68782742 -17.77034634 16.68782742 -18.5 14.125 C-21.74719263 11.96020491 -22.37794029 11.87365288 -26.0625 12.25 C-26.84753906 12.31445312 -27.63257813 12.37890625 -28.44140625 12.4453125 C-29.12074219 12.66960938 -29.80007812 12.89390625 -30.5 13.125 C-31.16 14.445 -31.82 15.765 -32.5 17.125 C-40.42 17.125 -48.34 17.125 -56.5 17.125 C-56.5 7.74038462 -56.5 7.74038462 -52.5 3.125 C-39.79844919 -8.49556776 -14.5676137 -7.80407877 0 0 Z M-33.5 37.125 C-33.83333333 39.625 -33.83333333 39.625 -33.5 42.125 C-31.14048821 44.48451179 -30.48074365 44.46909415 -27.25 44.5625 C-23.84288458 44.47993662 -21.69002404 44.04304291 -18.9375 42 C-16.23036247 39.33070116 -16.23036247 39.33070116 -16.0625 35.875 C-16.20886604 33.22039142 -16.20886604 33.22039142 -17.5 32.125 C-22.92781528 31.44652309 -29.62008611 33.24508611 -33.5 37.125 Z " fill="#72785D" transform="translate(160.5,33.875)"/>
<path d="M0 0 C0.68964844 -0.00386719 1.37929687 -0.00773438 2.08984375 -0.01171875 C7.24666707 -0.00166646 7.24666707 -0.00166646 9.5 1.125 C9.5 7.065 9.5 13.005 9.5 19.125 C11.459375 19.104375 13.41875 19.08375 15.4375 19.0625 C17.45832876 19.04122812 19.48035801 19.05255947 21.5 19.125 C23.49520233 21.12020233 22.95409364 24.88547166 23.125 27.625 C23.1765625 28.32753906 23.228125 29.03007813 23.28125 29.75390625 C23.39838401 31.54192241 23.45396301 33.33374268 23.5 35.125 C21.62175109 37.00324891 18.46064724 36.51602397 15.9375 36.6875 C14.73996094 36.77128906 13.54242188 36.85507812 12.30859375 36.94140625 C11.38175781 37.00199219 10.45492187 37.06257813 9.5 37.125 C9.58054472 41.4174552 9.69341523 45.70845467 9.8125 50 C9.84633789 51.83498047 9.84633789 51.83498047 9.88085938 53.70703125 C9.91630859 54.87363281 9.95175781 56.04023437 9.98828125 57.2421875 C10.02755737 58.86036377 10.02755737 58.86036377 10.06762695 60.51123047 C10.21031006 61.37377441 10.35299316 62.23631836 10.5 63.125 C14.56725434 65.8365029 17.6547611 65.70367488 22.5 66.125 C22.5 71.075 22.5 76.025 22.5 81.125 C13.22112867 84.09423883 2.5162779 84.76637964 -6.6640625 81.09765625 C-10.90924793 78.8486112 -13.04559757 76.42929591 -14.61669922 71.91967773 C-15.52499531 68.01761965 -15.7285073 64.66013013 -15.6953125 60.66015625 C-15.69106766 59.64289711 -15.69106766 59.64289711 -15.68673706 58.60508728 C-15.67565416 56.46570234 -15.6505736 54.3267557 -15.625 52.1875 C-15.61495476 50.72591756 -15.60583163 49.26432847 -15.59765625 47.80273438 C-15.57575425 44.24335021 -15.54130866 40.68421797 -15.5 37.125 C-19.46 36.63 -19.46 36.63 -23.5 36.125 C-23.52684679 33.47909986 -23.54676357 30.83346904 -23.5625 28.1875 C-23.57087891 27.43275391 -23.57925781 26.67800781 -23.58789062 25.90039062 C-23.59652441 23.97505687 -23.55224333 22.04964419 -23.5 20.125 C-22.5 19.125 -22.5 19.125 -20.43359375 19.02734375 C-19.19802734 19.04474609 -19.19802734 19.04474609 -17.9375 19.0625 C-17.11121094 19.07152344 -16.28492188 19.08054687 -15.43359375 19.08984375 C-14.47646484 19.10724609 -14.47646484 19.10724609 -13.5 19.125 C-13.37882813 18.41214844 -13.25765625 17.69929688 -13.1328125 16.96484375 C-11.23324306 6.1080738 -11.23324306 6.1080738 -9.5 1.125 C-6.46570323 -0.39214839 -3.32398333 -0.01863916 0 0 Z " fill="#72775D" transform="translate(195.5,10.875)"/>
<path d="M0 0 C6.33160475 -0.09642038 12.50584543 -0.13378547 18.76953125 0.87890625 C21.19947492 1.01082964 23.39143364 0.62515813 25.78540039 0.24682617 C30.76791417 -0.30849534 35.80567619 -0.14221544 40.8125 -0.125 C41.95654297 -0.12886719 43.10058594 -0.13273437 44.27929688 -0.13671875 C45.91415039 -0.13478516 45.91415039 -0.13478516 47.58203125 -0.1328125 C48.57436768 -0.13168457 49.5667041 -0.13055664 50.58911133 -0.12939453 C53 0 53 0 55 1 C54.67 4.63 54.34 8.26 54 12 C49.73568559 12.85286288 46.24589194 13.13421581 41.9375 13.125 C40.72964844 13.12757812 39.52179688 13.13015625 38.27734375 13.1328125 C35 13 35 13 32.75390625 12.4296875 C30.77361001 11.77941564 30.77361001 11.77941564 28 13 C25.50732972 13.1219395 23.05488198 13.18511037 20.5625 13.1875 C19.24378906 13.20167969 17.92507813 13.21585938 16.56640625 13.23046875 C13.3449133 13.02228903 11.66079001 12.72168766 9 11 C8.34 11.66 7.68 12.32 7 13 C4.375 13.125 4.375 13.125 2 13 C0.56911472 10.13822943 1.40008303 8.06624227 2 5 C1.01 4.67 0.02 4.34 -1 4 C-0.67 2.68 -0.34 1.36 0 0 Z M27 3 C28 5 28 5 28 5 Z M49 3 C48.67 3.66 48.34 4.32 48 5 C48.66 5 49.32 5 50 5 C49.67 4.34 49.34 3.68 49 3 Z M15 4 C15 5.65 15 7.3 15 9 C15.66 8.67 16.32 8.34 17 8 C17 6.68 17 5.36 17 4 C16.34 4 15.68 4 15 4 Z M38 5 C38.33 5.99 38.66 6.98 39 8 C39.66 7.34 40.32 6.68 41 6 C40.01 5.67 39.02 5.34 38 5 Z " fill="#6D7058" transform="translate(270,107)"/>
<path d="M0 0 C10.97592998 -0.63019694 10.97592998 -0.63019694 15.25 2 C15.8275 2.66 16.405 3.32 17 4 C16.34 4 15.68 4 15 4 C15.66 5.98 16.32 7.96 17 10 C17.66 10 18.32 10 19 10 C19.33 9.34 19.66 8.68 20 8 C20.66 9.32 21.32 10.64 22 12 C20.58566794 12.2236337 19.16832382 12.42826476 17.75 12.625 C16.96109375 12.74101563 16.1721875 12.85703125 15.359375 12.9765625 C12.67847541 13.00319395 11.27305911 12.36592084 9 11 C8.34 11.66 7.68 12.32 7 13 C4.375 13.125 4.375 13.125 2 13 C0.56911472 10.13822943 1.40008303 8.06624227 2 5 C1.01 4.67 0.02 4.34 -1 4 C-0.67 2.68 -0.34 1.36 0 0 Z " fill="#616551" transform="translate(270,107)"/>
<path d="M0 0 C1.21236328 0.01353516 1.21236328 0.01353516 2.44921875 0.02734375 C3.37154297 0.04474609 3.37154297 0.04474609 4.3125 0.0625 C3.9825 2.7025 3.6525 5.3425 3.3125 8.0625 C2.9825 7.4025 2.6525 6.7425 2.3125 6.0625 C0.9925 6.0625 -0.3275 6.0625 -1.6875 6.0625 C-2.0175 6.7225 -2.3475 7.3825 -2.6875 8.0625 C-2.6875 7.4025 -2.6875 6.7425 -2.6875 6.0625 C-4.0075 6.3925 -5.3275 6.7225 -6.6875 7.0625 C-6.6875 6.0725 -6.6875 5.0825 -6.6875 4.0625 C-7.3475 3.7325 -8.0075 3.4025 -8.6875 3.0625 C-6.88341097 -0.54567807 -3.60175697 -0.05219938 0 0 Z M-0.6875 3.0625 C0.3125 5.0625 0.3125 5.0625 0.3125 5.0625 Z " fill="#5D674F" transform="translate(297.6875,106.9375)"/>
<path d="M0 0 C3.26954202 0.56371414 4.82575883 1.49962266 7 4 C6.34 4 5.68 4 5 4 C5 5.65 5 7.3 5 9 C3.35 9 1.7 9 0 9 C-0.33 9.66 -0.66 10.32 -1 11 C-1.99 11 -2.98 11 -4 11 C-4.66 9.35 -5.32 7.7 -6 6 C-4.68 6 -3.36 6 -2 6 C-1.34 4.02 -0.68 2.04 0 0 Z " fill="#74785F" transform="translate(302,107)"/>
<path d="M0 0 C2.475 0.99 2.475 0.99 5 2 C4.67 4.64 4.34 7.28 4 10 C5.15811388 8.94729537 5.15811388 8.94729537 6 7 C6.66 7 7.32 7 8 7 C8 7.66 8 8.32 8 9 C9.32 9.33 10.64 9.66 12 10 C11.360625 10.309375 10.72125 10.61875 10.0625 10.9375 C8.06389179 11.8345163 8.06389179 11.8345163 7 13 C5.33382885 13.04063832 3.66611905 13.042721 2 13 C0.56911472 10.13822943 1.40008303 8.06624227 2 5 C1.01 4.67 0.02 4.34 -1 4 C-0.67 2.68 -0.34 1.36 0 0 Z " fill="#515246" transform="translate(270,107)"/>
<path d="M0 0 C1.79158489 -0.02696365 3.58328473 -0.04637917 5.375 -0.0625 C6.37273437 -0.07410156 7.37046875 -0.08570312 8.3984375 -0.09765625 C11 0 11 0 13 1 C12.67 3.31 12.34 5.62 12 8 C11.34 7.67 10.68 7.34 10 7 C10.33 6.01 10.66 5.02 11 4 C10.01 4 9.02 4 8 4 C7.67 3.34 7.34 2.68 7 2 C4.67843403 1.59270772 2.3431213 1.25561323 0 1 C0 0.67 0 0.34 0 0 Z " fill="#4C4E44" transform="translate(312,107)"/>
<path d="M0 0 C2.8125 -0.25 2.8125 -0.25 6 0 C7.875 2 7.875 2 9 4 C8.01 4.99 7.02 5.98 6 7 C5.34 6.67 4.68 6.34 4 6 C3.34 6.66 2.68 7.32 2 8 C2.04125 7.236875 2.0825 6.47375 2.125 5.6875 C2.22080824 2.77281584 2.22080824 2.77281584 0 0 Z " fill="#575A4A" transform="translate(305,107)"/>
<path d="M0 0 C1.77049689 -0.05410687 3.54146849 -0.09284119 5.3125 -0.125 C6.29863281 -0.14820312 7.28476562 -0.17140625 8.30078125 -0.1953125 C11 0 11 0 14 2 C10.535 3.485 10.535 3.485 7 5 C7 4.34 7 3.68 7 3 C6.34 3 5.68 3 5 3 C5 2.34 5 1.68 5 1 C3.02 1.33 1.04 1.66 -1 2 C-0.67 1.34 -0.34 0.68 0 0 Z " fill="#676C56" transform="translate(258,29)"/>
<path d="M0 0 C0.99 0.33 1.98 0.66 3 1 C2.401875 1.391875 1.80375 1.78375 1.1875 2.1875 C-1.29384226 4.2434693 -2.56373625 6.12747249 -4 9 C-4 9.99 -4 10.98 -4 12 C-4.66 12 -5.32 12 -6 12 C-6.71484375 10.265625 -6.71484375 10.265625 -7 8 C-5.56640625 5.859375 -5.56640625 5.859375 -3.5625 3.75 C-2.57443359 2.69039062 -2.57443359 2.69039062 -1.56640625 1.609375 C-1.04949219 1.07828125 -0.53257813 0.5471875 0 0 Z " fill="#636653" transform="translate(110,59)"/>
<path d="M0 0 C0.33 0.66 0.66 1.32 1 2 C1.66 2 2.32 2 3 2 C3.33 1.34 3.66 0.68 4 0 C4.66 1.32 5.32 2.64 6 4 C1.545 4.495 1.545 4.495 -3 5 C-2.67 3.68 -2.34 2.36 -2 1 C-1.34 0.67 -0.68 0.34 0 0 Z " fill="#5B5D49" transform="translate(286,115)"/>
<path d="M0 0 C3.90469752 2.60313168 4.06786357 4.49467394 5 9 C4.625 11.4375 4.625 11.4375 4 13 C3.01 12.34 2.02 11.68 1 11 C1.20625 10.4225 1.4125 9.845 1.625 9.25 C2.09244799 6.44531206 1.33931729 5.44228447 0 3 C0 2.01 0 1.02 0 0 Z " fill="#6A6E5A" transform="translate(38,11)"/>
<path d="M0 0 C0.33 0.66 0.66 1.32 1 2 C1.66 2 2.32 2 3 2 C3.33 3.32 3.66 4.64 4 6 C1.69 5.67 -0.62 5.34 -3 5 C-3 4.01 -3 3.02 -3 2 C-2.01 2 -1.02 2 0 2 C0 1.34 0 0.68 0 0 Z " fill="#5F644C" transform="translate(305,114)"/>
<path d="M0 0 C1.2065625 0.0309375 1.2065625 0.0309375 2.4375 0.0625 C2.1075 1.7125 1.7775 3.3625 1.4375 5.0625 C0.1175 5.3925 -1.2025 5.7225 -2.5625 6.0625 C-2.2325 5.4025 -1.9025 4.7425 -1.5625 4.0625 C-2.5525 3.7325 -3.5425 3.4025 -4.5625 3.0625 C-3.06867284 0.07484568 -3.06867284 0.07484568 0 0 Z " fill="#747761" transform="translate(282.5625,112.9375)"/>
<path d="M0 0 C0.66 0.33 1.32 0.66 2 1 C0.35 2.98 -1.3 4.96 -3 7 C-4.98 6.34 -6.96 5.68 -9 5 C-9 4.67 -9 4.34 -9 4 C-7.88625 3.71125 -6.7725 3.4225 -5.625 3.125 C-1.99708908 2.30758671 -1.99708908 2.30758671 0 0 Z " fill="#636656" transform="translate(142,74)"/>
<path d="M0 0 C0.99 0 1.98 0 3 0 C3.33 1.98 3.66 3.96 4 6 C2.68 6 1.36 6 0 6 C-0.38218767 4.34385343 -0.71395102 2.67542976 -1 1 C-0.67 0.67 -0.34 0.34 0 0 Z " fill="#777A5F" transform="translate(309,114)"/>
<path d="M0 0 C1.2065625 0.0309375 1.2065625 0.0309375 2.4375 0.0625 C2.4375 0.7225 2.4375 1.3825 2.4375 2.0625 C3.4275 2.3925 4.4175 2.7225 5.4375 3.0625 C4.4475 3.7225 3.4575 4.3825 2.4375 5.0625 C1.7775 4.4025 1.1175 3.7425 0.4375 3.0625 C-0.87997324 2.36501417 -2.21164193 1.69290043 -3.5625 1.0625 C-2.5625 0.0625 -2.5625 0.0625 0 0 Z " fill="#72765F" transform="translate(286.5625,107.9375)"/>
<path d="M0 0 C0.66 0 1.32 0 2 0 C2 0.66 2 1.32 2 2 C2.66 2.33 3.32 2.66 4 3 C2.35 4.98 0.7 6.96 -1 9 C-2.60031344 5.79937313 -1.03173691 3.27728194 0 0 Z " fill="#5C5F4A" transform="translate(56,38)"/>
<path d="M0 0 C1.32 0.99 2.64 1.98 4 3 C3.67 3.99 3.34 4.98 3 6 C1.35 5.67 -0.3 5.34 -2 5 C-1.34 3.35 -0.68 1.7 0 0 Z " fill="#5D644C" transform="translate(297,114)"/>
<path d="M0 0 C0.99 0 1.98 0 3 0 C3 0.99 3 1.98 3 3 C2.34 3 1.68 3 1 3 C0.67 4.32 0.34 5.64 0 7 C-0.66 6.67 -1.32 6.34 -2 6 C-1.34 4.02 -0.68 2.04 0 0 Z " fill="#727552" transform="translate(275,111)"/>
<path d="M0 0 C0.33 0.66 0.66 1.32 1 2 C0.0625 4.625 0.0625 4.625 -1 7 C-1.99 6.67 -2.98 6.34 -4 6 C-4 4.35 -4 2.7 -4 1 C-3.67 1.66 -3.34 2.32 -3 3 C-2.34 3 -1.68 3 -1 3 C-0.67 2.01 -0.34 1.02 0 0 Z " fill="#5E634E" transform="translate(54,49)"/>
</svg>
